<svg id="visual" viewBox="0 0 900 600" width="900" height="600" xmlns="http://www.w3.org/2000/svg" xmlns:xlink="http://www.w3.org/1999/xlink" version="1.1"><g><g transform="translate(408 345)"><path d="M21.4 -0.8C21.4 10.5 10.7 21 0.4 21C-9.9 21 -19.9 10.5 -19.9 -0.8C-19.9 -12.1 -9.9 -24.1 0.4 -24.1C10.7 -24.1 21.4 -12.1 21.4 -0.8Z" fill="#F7760E"></path></g><g transform="translate(612 490)"><path d="M8.7 0.1C8.7 4.4 4.4 8.8 0 8.8C-4.4 8.8 -8.8 4.4 -8.8 0.1C-8.8 -4.3 -4.4 -8.6 0 -8.6C4.4 -8.6 8.7 -4.3 8.7 0.1Z" fill="#F7760E"></path></g><g transform="translate(61 456)"><path d="M23.3 -0.4C23.3 10.2 11.7 20.4 0.4 20.4C-10.8 20.4 -21.6 10.2 -21.6 -0.4C-21.6 -11.1 -10.8 -22.1 0.4 -22.1C11.7 -22.1 23.3 -11.1 23.3 -0.4Z" fill="#F7760E"></path></g><g transform="translate(502 186)"><path d="M16.2 -0.5C16.2 7.2 8.1 14.5 0.6 14.5C-7 14.5 -13.9 7.2 -13.9 -0.5C-13.9 -8.3 -7 -16.6 0.6 -16.6C8.1 -16.6 16.2 -8.3 16.2 -0.5Z" fill="#F7760E"></path></g><g transform="translate(355 228)"><path d="M13.5 -0.2C13.5 7.1 6.8 14.1 0.2 14.1C-6.3 14.1 -12.6 7.1 -12.6 -0.2C-12.6 -7.5 -6.3 -15 0.2 -15C6.8 -15 13.5 -7.5 13.5 -0.2Z" fill="#F7760E"></path></g><g transform="translate(311 19)"><path d="M18.7 0.2C18.7 9.3 9.3 18.7 0.3 18.7C-8.7 18.7 -17.3 9.3 -17.3 0.2C-17.3 -9 -8.7 -17.9 0.3 -17.9C9.3 -17.9 18.7 -9 18.7 0.2Z" fill="#F7760E"></path></g></g></svg>