<svg id="visual" viewBox="0 0 900 600" width="900" height="600" xmlns="http://www.w3.org/2000/svg" xmlns:xlink="http://www.w3.org/1999/xlink" version="1.1"><rect x="0" y="0" width="900" height="600" fill="#a1d3ec"></rect><path d="M0 530L13.7 529.2C27.3 528.3 54.7 526.7 82 523.7C109.3 520.7 136.7 516.3 163.8 509.7C191 503 218 494 245.2 491C272.3 488 299.7 491 327 492.2C354.3 493.3 381.7 492.7 409 496.3C436.3 500 463.7 508 491 505.2C518.3 502.3 545.7 488.7 573 492.2C600.3 495.7 627.7 516.3 654.8 516.5C682 516.7 709 496.3 736.2 489.7C763.3 483 790.7 490 818 497.7C845.3 505.3 872.7 513.7 886.3 517.8L900 522L900 601L886.3 601C872.7 601 845.3 601 818 601C790.7 601 763.3 601 736.2 601C709 601 682 601 654.8 601C627.7 601 600.3 601 573 601C545.7 601 518.3 601 491 601C463.7 601 436.3 601 409 601C381.7 601 354.3 601 327 601C299.7 601 272.3 601 245.2 601C218 601 191 601 163.8 601C136.7 601 109.3 601 82 601C54.7 601 27.3 601 13.7 601L0 601Z" fill="#0066FF" stroke-linecap="round" stroke-linejoin="miter"></path></svg>