<svg id="visual" viewBox="0 0 900 600" width="900" height="600" xmlns="http://www.w3.org/2000/svg" xmlns:xlink="http://www.w3.org/1999/xlink" version="1.1"><path d="M375 0L352.7 11.2C330.3 22.3 285.7 44.7 283.5 66.8C281.3 89 321.7 111 320.5 133.2C319.3 155.3 276.7 177.7 273.7 200C270.7 222.3 307.3 244.7 331.3 266.8C355.3 289 366.7 311 355 333.2C343.3 355.3 308.7 377.7 304.8 400C301 422.3 328 444.7 349.7 466.8C371.3 489 387.7 511 393.8 533.2C400 555.3 396 577.7 394 588.8L392 600L0 600L0 588.8C0 577.7 0 555.3 0 533.2C0 511 0 489 0 466.8C0 444.7 0 422.3 0 400C0 377.7 0 355.3 0 333.2C0 311 0 289 0 266.8C0 244.7 0 222.3 0 200C0 177.7 0 155.3 0 133.2C0 111 0 89 0 66.8C0 44.7 0 22.3 0 11.2L0 0Z" fill="#ef9700" stroke-linecap="round" stroke-linejoin="miter"></path></svg>