<svg id="visual" viewBox="0 0 900 600" width="900" height="600" xmlns="http://www.w3.org/2000/svg" xmlns:xlink="http://www.w3.org/1999/xlink" version="1.1"><path d="M465 0L469.7 3.8C474.3 7.7 483.7 15.3 479.2 23C474.7 30.7 456.3 38.3 446 46C435.7 53.7 433.3 61.3 433.3 69C433.3 76.7 435.7 84.3 438.2 92C440.7 99.7 443.3 107.3 451 115C458.7 122.7 471.3 130.3 478.7 138.2C486 146 488 154 489.5 161.8C491 169.7 492 177.3 481 185C470 192.7 447 200.3 445.8 208C444.7 215.7 465.3 223.3 465.5 231C465.7 238.7 445.3 246.3 445.5 254C445.7 261.7 466.3 269.3 475.7 277C485 284.7 483 292.3 477.8 300C472.7 307.7 464.3 315.3 465.2 323C466 330.7 476 338.3 477.8 346C479.7 353.7 473.3 361.3 471.2 369C469 376.7 471 384.3 464.8 392C458.7 399.7 444.3 407.3 442.8 415C441.3 422.7 452.7 430.3 451.2 438.2C449.7 446 435.3 454 426.8 461.8C418.3 469.7 415.7 477.3 413.2 485C410.7 492.7 408.3 500.3 419.2 508C430 515.7 454 523.3 463 531C472 538.7 466 546.3 457 554C448 561.7 436 569.3 438 577C440 584.7 456 592.3 464 596.2L472 600L0 600L0 596.2C0 592.3 0 584.7 0 577C0 569.3 0 561.7 0 554C0 546.3 0 538.7 0 531C0 523.3 0 515.7 0 508C0 500.3 0 492.7 0 485C0 477.3 0 469.7 0 461.8C0 454 0 446 0 438.2C0 430.3 0 422.7 0 415C0 407.3 0 399.7 0 392C0 384.3 0 376.7 0 369C0 361.3 0 353.7 0 346C0 338.3 0 330.7 0 323C0 315.3 0 307.7 0 300C0 292.3 0 284.7 0 277C0 269.3 0 261.7 0 254C0 246.3 0 238.7 0 231C0 223.3 0 215.7 0 208C0 200.3 0 192.7 0 185C0 177.3 0 169.7 0 161.8C0 154 0 146 0 138.2C0 130.3 0 122.7 0 115C0 107.3 0 99.7 0 92C0 84.3 0 76.7 0 69C0 61.3 0 53.7 0 46C0 38.3 0 30.7 0 23C0 15.3 0 7.7 0 3.8L0 0Z" fill="#F7770F" stroke-linecap="round" stroke-linejoin="miter"></path></svg>